<svg xmlns="http://www.w3.org/2000/svg" width="960" height="600" viewBox="0 0 960 600" data-scenario="fall">
<style>
  text{font-family:Arial,Helvetica,sans-serif}
  .bg{fill:#0b1533}
  .grid{stroke:rgba(191,219,254,.12);stroke-width:1}
  .card{fill:#111f46;stroke:rgba(191,219,254,.25);stroke-width:2}
  .label{fill:#bfdbfe;font-size:20px;font-weight:900;letter-spacing:2px}
  .title{fill:white;font-size:34px;font-weight:900;letter-spacing:1px}
  .sub{fill:#dbeafe;font-size:22px;font-weight:700}
  .chip{opacity:.18;stroke-width:2}
  .chiptext{font-size:20px;font-weight:900}
  .wave{fill:none;stroke-width:9;stroke-linecap:round;filter:url(#glow)}
  .wave2{fill:none;stroke:#38bdf8;stroke-width:4;stroke-linecap:round;stroke-dasharray:12 16;opacity:.55}
  .room{fill:rgba(255,255,255,.035);stroke:rgba(255,255,255,.16);stroke-width:2}
  .furniture{fill:rgba(255,255,255,.12);stroke:rgba(255,255,255,.2);stroke-width:2}
  .path{fill:none;stroke:#93c5fd;stroke-width:5;stroke-linecap:round;stroke-dasharray:8 12;opacity:.55}
  .pose path{fill:none;stroke:#fff;stroke-width:15;stroke-linecap:round;stroke-linejoin:round;filter:url(#whiteGlow)}
  .pose circle{fill:#60a5fa;stroke:white;stroke-width:5}
  .read{fill:#172554;stroke:rgba(255,255,255,.22);stroke-width:1}
  .readlabel{fill:#bfdbfe;font-size:16px;font-weight:900;letter-spacing:1px}
  .readvalue{fill:white;font-size:23px;font-weight:900}
</style>
<defs>
  <filter id="glow"><feGaussianBlur stdDeviation="5" result="b"/><feMerge><feMergeNode in="b"/><feMergeNode in="SourceGraphic"/></feMerge></filter>
  <filter id="whiteGlow"><feGaussianBlur stdDeviation="2" result="b"/><feMerge><feMergeNode in="b"/><feMergeNode in="SourceGraphic"/></feMerge></filter>
  <radialGradient id="spot" cx="50%" cy="48%" r="58%"><stop stop-color="#ef4444" stop-opacity=".22"/><stop offset="1" stop-color="#0b1533" stop-opacity="0"/></radialGradient>
</defs>
<rect class="bg" width="960" height="600" rx="34"/>
<rect x="26" y="24" width="908" height="552" rx="28" fill="url(#spot)"/>
<g opacity=".85">
  <path class="grid" d="M80 42 V558"/><path class="grid" d="M160 42 V558"/><path class="grid" d="M240 42 V558"/><path class="grid" d="M320 42 V558"/><path class="grid" d="M400 42 V558"/><path class="grid" d="M480 42 V558"/><path class="grid" d="M560 42 V558"/><path class="grid" d="M640 42 V558"/><path class="grid" d="M720 42 V558"/><path class="grid" d="M800 42 V558"/><path class="grid" d="M880 42 V558"/>
  <path class="grid" d="M46 100 H914"/><path class="grid" d="M46 170 H914"/><path class="grid" d="M46 240 H914"/><path class="grid" d="M46 310 H914"/><path class="grid" d="M46 380 H914"/><path class="grid" d="M46 450 H914"/><path class="grid" d="M46 520 H914"/>
</g>
<rect class="card" x="46" y="42" width="868" height="516" rx="28"/>
<rect class="room" x="328" y="188" width="520" height="206" rx="26"/>
<text class="label" x="78" y="88">RUVIEW + SAFEWAVE EXAMPLE</text>
<text class="title" x="78" y="140">FALL + INACTIVITY</text>
<text class="sub" x="78" y="178">Large spike + horizontal pose</text>
<rect class="chip" x="708" y="70" width="166" height="54" rx="27" fill="#ef4444" stroke="#ef4444"/>
<text class="chiptext" x="736" y="105" fill="#ef4444">HIGH - 92</text>
<path class="wave2" d="M120 344 C270 330 360 350 500 338 C650 324 730 336 842 330"/>
<path class="wave" d="M96 300 C180 300 228 116 288 292 C422 300 560 302 814 302" stroke="#ef4444"/>
<g class="pose"><circle cx="382" cy="326" r="18"/><path d="M404 328 L552 328"/><path d="M456 328 L424 376"/><path d="M488 328 L526 374"/><path d="M552 328 L626 306"/><path d="M552 328 L616 376"/><circle cx="424" cy="376" r="9"/><circle cx="526" cy="374" r="9"/><circle cx="626" cy="306" r="9"/><circle cx="616" cy="376" r="9"/></g>
<g transform="translate(78 462)">
  <rect class="read" width="190" height="70" rx="18"/><text class="readlabel" x="18" y="27">CSI STATE</text><text class="readvalue" x="18" y="56">FALL RISK</text>
</g>
<g transform="translate(286 462)">
  <rect class="read" width="150" height="70" rx="18"/><text class="readlabel" x="18" y="27">RISK</text><text class="readvalue" x="18" y="56">HIGH</text>
</g>
<g transform="translate(454 462)">
  <rect class="read" width="190" height="70" rx="18"/><text class="readlabel" x="18" y="27">ACTION</text><text class="readvalue" x="18" y="56">CARE CHECK</text>
</g>
<g transform="translate(662 462)">
  <rect class="read" width="190" height="70" rx="18"/><text class="readlabel" x="18" y="27">PRIVACY</text><text class="readvalue" x="18" y="56">NO CAMERA</text>
</g>
</svg>
