<svg xmlns="http://www.w3.org/2000/svg" width="960" height="600" viewBox="0 0 960 600" data-scenario="inactivity">
<style>
  text{font-family:Arial,Helvetica,sans-serif}
  .bg{fill:#0b1533}
  .grid{stroke:rgba(191,219,254,.12);stroke-width:1}
  .card{fill:#111f46;stroke:rgba(191,219,254,.25);stroke-width:2}
  .label{fill:#bfdbfe;font-size:20px;font-weight:900;letter-spacing:2px}
  .title{fill:white;font-size:34px;font-weight:900;letter-spacing:1px}
  .sub{fill:#dbeafe;font-size:22px;font-weight:700}
  .chip{opacity:.18;stroke-width:2}
  .chiptext{font-size:20px;font-weight:900}
  .wave{fill:none;stroke-width:9;stroke-linecap:round;filter:url(#glow)}
  .wave2{fill:none;stroke:#38bdf8;stroke-width:4;stroke-linecap:round;stroke-dasharray:12 16;opacity:.55}
  .room{fill:rgba(255,255,255,.035);stroke:rgba(255,255,255,.16);stroke-width:2}
  .furniture{fill:rgba(255,255,255,.12);stroke:rgba(255,255,255,.2);stroke-width:2}
  .path{fill:none;stroke:#93c5fd;stroke-width:5;stroke-linecap:round;stroke-dasharray:8 12;opacity:.55}
  .pose path{fill:none;stroke:#fff;stroke-width:15;stroke-linecap:round;stroke-linejoin:round;filter:url(#whiteGlow)}
  .pose circle{fill:#60a5fa;stroke:white;stroke-width:5}
  .read{fill:#172554;stroke:rgba(255,255,255,.22);stroke-width:1}
  .readlabel{fill:#bfdbfe;font-size:16px;font-weight:900;letter-spacing:1px}
  .readvalue{fill:white;font-size:23px;font-weight:900}
</style>
<defs>
  <filter id="glow"><feGaussianBlur stdDeviation="5" result="b"/><feMerge><feMergeNode in="b"/><feMergeNode in="SourceGraphic"/></feMerge></filter>
  <filter id="whiteGlow"><feGaussianBlur stdDeviation="2" result="b"/><feMerge><feMergeNode in="b"/><feMergeNode in="SourceGraphic"/></feMerge></filter>
  <radialGradient id="spot" cx="50%" cy="48%" r="58%"><stop stop-color="#f59e0b" stop-opacity=".22"/><stop offset="1" stop-color="#0b1533" stop-opacity="0"/></radialGradient>
</defs>
<rect class="bg" width="960" height="600" rx="34"/>
<rect x="26" y="24" width="908" height="552" rx="28" fill="url(#spot)"/>
<g opacity=".85">
  <path class="grid" d="M80 42 V558"/><path class="grid" d="M160 42 V558"/><path class="grid" d="M240 42 V558"/><path class="grid" d="M320 42 V558"/><path class="grid" d="M400 42 V558"/><path class="grid" d="M480 42 V558"/><path class="grid" d="M560 42 V558"/><path class="grid" d="M640 42 V558"/><path class="grid" d="M720 42 V558"/><path class="grid" d="M800 42 V558"/><path class="grid" d="M880 42 V558"/>
  <path class="grid" d="M46 100 H914"/><path class="grid" d="M46 170 H914"/><path class="grid" d="M46 240 H914"/><path class="grid" d="M46 310 H914"/><path class="grid" d="M46 380 H914"/><path class="grid" d="M46 450 H914"/><path class="grid" d="M46 520 H914"/>
</g>
<rect class="card" x="46" y="42" width="868" height="516" rx="28"/>
<rect class="room" x="328" y="188" width="520" height="206" rx="26"/>
<text class="label" x="78" y="88">RUVIEW + SAFEWAVE EXAMPLE</text>
<text class="title" x="78" y="140">LONG INACTIVITY</text>
<text class="sub" x="78" y="178">Low-amplitude CSI + long stop</text>
<rect class="chip" x="708" y="70" width="166" height="54" rx="27" fill="#f59e0b" stroke="#f59e0b"/>
<text class="chiptext" x="736" y="105" fill="#f59e0b">HIGH - 72</text>
<path class="wave2" d="M120 342 C245 340 330 344 455 340 C590 336 700 338 842 336"/>
<path class="wave" d="M96 292 C220 290 320 294 430 291 C550 288 670 290 814 289" stroke="#f59e0b"/>
<rect class="furniture" x="420" y="342" width="170" height="22" rx="11"/><g class="pose"><circle cx="500" cy="210" r="18"/><path d="M500 230 L500 300"/><path d="M500 252 L452 278"/><path d="M500 252 L548 278"/><path d="M500 300 L452 344"/><path d="M500 300 L570 342"/><circle cx="452" cy="344" r="9"/><circle cx="570" cy="342" r="9"/></g>
<g transform="translate(78 462)">
  <rect class="read" width="190" height="70" rx="18"/><text class="readlabel" x="18" y="27">CSI STATE</text><text class="readvalue" x="18" y="56">INACTIVE</text>
</g>
<g transform="translate(286 462)">
  <rect class="read" width="150" height="70" rx="18"/><text class="readlabel" x="18" y="27">RISK</text><text class="readvalue" x="18" y="56">HIGH</text>
</g>
<g transform="translate(454 462)">
  <rect class="read" width="190" height="70" rx="18"/><text class="readlabel" x="18" y="27">ACTION</text><text class="readvalue" x="18" y="56">CARE CHECK</text>
</g>
<g transform="translate(662 462)">
  <rect class="read" width="190" height="70" rx="18"/><text class="readlabel" x="18" y="27">PRIVACY</text><text class="readvalue" x="18" y="56">NO CAMERA</text>
</g>
</svg>
